<svg width="50" height="50" xmlns="http://www.w3.org/2000/svg">

 <g>
  <title>background</title>
  <rect fill="none" id="canvas_background" height="402" width="582" y="-1" x="-1"/>
 </g>
 <g>
  <title>Layer 1</title>
  <path id="camera" fill="#000000" d="m34.1,12.6c0,0 -18.5,0 -18.6,0c-1.6,0 -2.9,1.3 -2.9,2.9l0,0c0,0 0,19 0,19c0,1.6 1.3,2.9 2.9,2.9c0,0 19,0 19,0c1.5,-0.1 2.9,-1.3 2.9,-2.9c0,0 0,-19 0,-19c-0.1,-1.5 -1.8,-2.8 -3.3,-2.9zm-9.1,7.9c2.5,0 4.5,2 4.5,4.5c0,2.5 -2,4.5 -4.5,4.5c-2.5,0 -4.5,-2 -4.5,-4.5c0,-2.5 2,-4.5 4.5,-4.5zm9.1,11.9c0,0.9 -0.7,1.6 -1.6,1.6l-7.5,0l-7.4,0c-0.9,0 -1.6,-0.7 -1.6,-1.6l0,-9.5l1.9,0c-0.2,0.7 -0.3,1.3 -0.3,2.1c0,4.1 3.3,7.4 7.4,7.4s7.4,-3.3 7.4,-7.4c0,-0.7 -0.1,-1.4 -0.3,-2.1l1.9,0l0,9.5l0.1,0zm0,-15.6l0,2.5l0,0c0,0.4 -0.4,0.8 -0.8,0.8l0,0l-2.5,0c-0.4,0 -0.8,-0.4 -0.8,-0.8l0,0l0,-2.5l0,0c0,0 0,0 0,0c0,-0.5 0.4,-0.8 0.8,-0.8l2.5,0l0,0c0.4,-0.1 0.8,0.3 0.8,0.8c0,0 0,0 0,0l0,0z"/>
  <path id="svg_1" fill="#000000" d="m25,1c-13.3,0 -24,10.7 -24,24s10.7,24 24,24s24,-10.7 24,-24s-10.7,-24 -24,-24zm0,43c-10.5,0 -19,-8.5 -19,-19s8.5,-19 19,-19s19,8.5 19,19s-8.5,19 -19,19z"/>
 </g>
</svg>