<svg xmlns="http://www.w3.org/2000/svg" width="99.141" height="201" viewBox="0 0 99.141 201">
  <g id="Group_275" data-name="Group 275" transform="translate(-5098.859 1257)">
    <g id="placeholder" transform="translate(5022.859 -1257)">
      <g id="Group_272" data-name="Group 272" transform="translate(76)">
        <g id="Group_271" data-name="Group 271">
          <path id="Path_375" data-name="Path 375" d="M125.57,0A49.579,49.579,0,0,0,83.4,75.637l39.349,63.411a4.131,4.131,0,0,0,3.51,1.953h.033a4.13,4.13,0,0,0,3.511-2.008l38.346-64.025A49.581,49.581,0,0,0,125.57,0Zm35.488,70.725L126.2,128.934,90.421,71.284a41.336,41.336,0,1,1,70.637-.558Z" transform="translate(-76)"/>
        </g>
      </g>
      <g id="Group_274" data-name="Group 274" transform="translate(100.785 24.785)">
        <g id="Group_273" data-name="Group 273">
          <path id="Path_376" data-name="Path 376" d="M190.785,90a24.785,24.785,0,1,0,24.785,24.785A24.813,24.813,0,0,0,190.785,90Zm0,41.364a16.579,16.579,0,1,1,16.551-16.579A16.591,16.591,0,0,1,190.785,131.364Z" transform="translate(-166 -90)"/>
        </g>
      </g>
    </g>
    <circle id="Ellipse_36" data-name="Ellipse 36" cx="18.5" cy="18.5" r="18.5" transform="translate(5130 -1093)" fill="#ad0a0a"/>
  </g>
</svg>
